# xmcd
#
# Track frame offsets: 
#        150
#        15947
#        29444
#        45400
#        57856
#        73524
#        88259
#        104127
#        118007
#        134756
#        147449
#        164823
#        180503
#        194656
#        209688
#        223666
#        240368
#        257764
#        272591
#        290282
#        304698
#        320801
#
# Disc length: 4530 seconds
#
# Revision: 1
# Processed by: cddbd v1.5.2PL0 Copyright (c) Steve Scherf et al.
# Submitted via: ExactAudioCopy v0.95b3
#
DISCID=5b11b016
DTITLE=Various Artist - Гновая Игрушка 20
DYEAR=2007
DGENRE=Pop
TTITLE0=Валерий Меладзе/Сахара Не Надо
TTITLE1=DJ Slon/Финская Полька
TTITLE2=Чай Вдвоём/Москва С.Н.В.
TTITLE3=Сценакардия/Самолёты
TTITLE4=Банд'эрос/Наоми я бы Кэмпбел
TTITLE5=Лигалайз и Дато/Джаная
TTITLE6=Челси/Я к тебе не подойду
TTITLE7=Звери/Танцуй
TTITLE8=Катя Чехова/По проводам
TTITLE9=ТIК/Оленi
TTITLE10=Юлия Савичева/Мало (радиоверсия)
TTITLE11=Подъём/Девчонка на свадьбе
TTITLE12=Массква/Разные
TTITLE13=Серёга и В.В.Жириновский/Рэп vs. СПИД
TTITLE14=Оксана Почепа/Вьюга
TTITLE15=Сказка/Я с тобой
TTITLE16=Евгения Власова/Я буду
TTITLE17=Алена Высотская/Снегу рада
TTITLE18=Сергей Крылов/Девочка моя
TTITLE19=Leona/Заболела тобой
TTITLE20=К.У.К.Л.А./Кукла (Dj Vital rmx)
TTITLE21=Сергей Жуков/Капали слёзы
EXTD=
EXTT0=
EXTT1=
EXTT2=
EXTT3=
EXTT4=
EXTT5=
EXTT6=
EXTT7=
EXTT8=
EXTT9=
EXTT10=
EXTT11=
EXTT12=
EXTT13=
EXTT14=
EXTT15=
EXTT16=
EXTT17=
EXTT18=
EXTT19=
EXTT20=
EXTT21=
PLAYORDER=
